<svg width="325" height="321" fill="none" xmlns="http://www.w3.org/2000/svg"><g filter="url(#a)"><path fill-rule="evenodd" clip-rule="evenodd" d="M240.475.48c7.468-2 15.145 2.431 17.146 9.9l60.046 224.095c2.001 7.468-2.431 15.145-9.899 17.146L83.673 311.667c-7.469 2.001-15.145-2.431-17.147-9.899L6.481 77.673c-2.002-7.469 2.43-15.145 9.899-17.147L240.475.481Zm10.126 10.746a6 6 0 1 1-11.59 3.106 6 6 0 0 1 11.59-3.106Zm-19.698 11.49a6 6 0 1 0-3.105-11.592 6 6 0 0 0 3.105 11.591Zm-11.212-3.208a6 6 0 1 1-11.591 3.106 6 6 0 0 1 11.591-3.106Z" fill="#001"/></g><rect x="116.074" y="164.074" width="70" height="16" rx="8" fill="#ACACAC"/><rect x="87.074" y="196.074" width="70" height="16" rx="8" fill="#FF2163"/><rect x="116.074" y="228.074" width="36" height="16" rx="8" fill="#fff"/><rect x="116.074" y="132.074" width="121.996" height="16" rx="8" fill="#fff"/><rect x="87.074" y="100.074" width="85" height="16" rx="8" fill="#00D1FF"/><rect x="87.074" y="68.074" width="137" height="16" rx="8" fill="#FF3A75"/><defs><filter id="a" x="0" y="0" width="320.148" height="320.148" filterUnits="userSpaceOnUse" color-interpolation-filters="sRGB"><feFlood flood-opacity="0" result="BackgroundImageFix"/><feColorMatrix in="SourceAlpha" values="0 0 0 0 0 0 0 0 0 0 0 0 0 0 0 0 0 0 127 0" result="hardAlpha"/><feOffset dx="-2" dy="4"/><feGaussianBlur stdDeviation="2"/><feColorMatrix values="0 0 0 0 0 0 0 0 0 0 0 0 0 0 0 0 0 0 0.32 0"/><feBlend in2="BackgroundImageFix" result="effect1_dropShadow_232_45"/><feBlend in="SourceGraphic" in2="effect1_dropShadow_232_45" result="shape"/></filter></defs></svg>